<svg xmlns="http://www.w3.org/2000/svg" width="210.259" height="86.348" viewBox="0 0 210.259 86.348"><path d="M0,41.45c3.382,0,4.071-1.691,4.071-4.822V6.386c0-3.131-.689-4.744-4.071-4.744v-.39L12.648,0V20.352c2.38-2.38,5.885-5.011,10.083-5.011,4.133,0,7.637,2.442,7.637,8.462V36.632c0,3.131.689,4.818,4.071,4.818v.373H18.222V41.45c2.819,0,3.632-1.691,3.632-4.822V22.917c0-3.254-1.44-4.695-3.755-4.695a7.841,7.841,0,0,0-5.45,2.754V36.632c0,3.131.689,4.822,4.071,4.822v.373H0Z" fill="#0082f2"/><path d="M90.93,57.292c0-5.2,4.822-7.264,10.707-7.264a26.228,26.228,0,0,1,6.891.94V44.521c0-3.759-.878-6.763-5.073-6.763a6.464,6.464,0,0,0-5.573,2.873,4.445,4.445,0,0,1,2.631,4.067,4.2,4.2,0,1,1-8.393-.176c0-3.948,4.761-7.141,11.774-7.141,6.2,0,13.211,2.569,13.211,9.767V60.736c0,1.441.751,1.941,1.691,1.941,1.752,0,3.254-1.941,4.133-3.316l.312.189c-1.564,2.5-3.694,4.925-7.765,4.925-3.5,0-5.7-1.818-6.509-4.383a10.525,10.525,0,0,1-9.082,4.445C94.562,64.557,90.93,61.8,90.93,57.292Zm17.6,2.631V51.469a14.315,14.315,0,0,0-3.694-.624c-3.382,0-5.138,2.052-5.138,6.074,0,3.316,1.256,5.885,4.071,5.885C105.585,62.8,107.149,61.741,108.528,59.923Z" transform="translate(-53.613 -22.039)" fill="#0082f2"/><path d="M169.2,63.489c3.382,0,4.071-1.818,4.071-4.949V44.016c0-3.127-.689-4.925-4.071-4.925v-.373l12.4-1.256v8.5c1.317-4.387,4.26-8.581,8.393-8.581a4.664,4.664,0,0,1,4.884,4.761,4.584,4.584,0,1,1-9.144-.378,7.857,7.857,0,0,0-3.882,4.445V58.565c0,3.447,1.129,4.949,4.514,4.949v.373H169.2Z" transform="translate(-99.761 -22.039)" fill="#0082f2"/><path d="M233.61,76.175c3.382,0,4.56-4.293,4.56-7.42V44.016c0-3.127-.69-4.925-4.071-4.925v-.373l12.394-1.276v4.133a10.687,10.687,0,0,1,8.45-4.194c7.141,0,11.4,6.39,11.4,13.543,0,7.453-4.695,13.65-13.133,13.65a10.7,10.7,0,0,1-6.513-1.814v6.386c0,3.131,1.256,4.572,4.572,4.572v.373l-17.647,2.462Zm13.075-34.223V58.61c0,3.566,2.257,5.384,4.633,5.384,4.514,0,6.012-7.137,6.012-12.648,0-6.763-1.941-11.647-6.2-11.647A5.707,5.707,0,0,0,246.685,41.952Z" transform="translate(-137.737 -22.039)" fill="#0082f2"/><path d="M323.91,50.968c0-7.7,5.824-13.588,14.274-13.588,7.387,0,12.653,4.572,12.837,12.275H332.738c0,8.265,3.131,13.461,8.893,13.461,4.317,0,7.264-2.943,8.955-5.384l.373.25a14.627,14.627,0,0,1-12.722,6.566C328.872,64.557,323.91,58.044,323.91,50.968Zm8.889-1.814h9.772c-.066-2.947-.25-11.4-4.572-11.4C334.367,37.758,332.926,44.143,332.8,49.154Z" transform="translate(-190.978 -22.039)" fill="#0082f2"/><path d="M398.05,63.489c3.382,0,4.083-1.814,4.083-4.925V44.016c0-3.127-.689-4.925-4.071-4.925v-.373l12.4-1.256v8.5c1.313-4.387,4.256-8.581,8.388-8.581a4.661,4.661,0,0,1,4.884,4.761,4.584,4.584,0,1,1-9.14-.378,7.856,7.856,0,0,0-3.882,4.445V58.565c0,3.447,1.125,4.949,4.514,4.949v.373H398.05Z" transform="translate(-234.691 -22.039)" fill="#0082f2"/><path d="M2,154.574c3.382,0,5.011-.246,5.011-3.378V134.37c0-3.131-1.642-3.382-5.011-3.382v-.373l9.332-1.256v21.858c0,3.131,1.642,3.378,5.007,3.378v.439H2Zm3.57-34A2.949,2.949,0,0,1,8.7,117.63a2.9,2.9,0,0,1,3.07,2.943,2.947,2.947,0,0,1-3.07,3.008,3,3,0,0,1-3.14-3.008Z" transform="translate(-1.179 -69.355)" fill="#0082f2"/><path d="M42.87,171.3c3.382,0,5.011-.246,5.011-3.378V151.1c0-3.131-1.642-3.382-5.011-3.382v-.374l9.332-1.256v5.577c1.876-1.97,5.446-5.663,10.079-5.663,3.694,0,7.014,2.319,7.014,7.953v13.954c0,3.131,1.642,3.378,5.011,3.378v.439H59.967v-.439c3.378,0,5.007-.246,5.007-3.378V153.953c0-3.755-1.642-5.947-4.925-5.947-3.509,0-6.012,2.442-7.826,4.317v15.6c0,3.131,1.642,3.378,5.007,3.378v.439H42.87Z" transform="translate(-25.276 -86.082)" fill="#0082f2"/><path d="M128.811,171.283l-.5-7.654.378-.062c1.313,3.382,3.443,8.454,9.267,8.454,4.133,0,6.263-2.569,6.263-5.2,0-7.075-15.345-4.633-15.345-13.9,0-3.821,2.631-6.952,9.082-6.952,3.316,0,5.446.821,8.265.189l.562,7.826-.374.062c-1-2.376-3.32-7.7-8.581-7.7-3.5,0-5.573,2.315-5.573,4.884,0,7.014,15.529,4.761,15.529,13.953,0,4.067-3.066,7.2-10.079,7.2A44.364,44.364,0,0,1,128.811,171.283Z" transform="translate(-75.652 -86.064)" fill="#0082f2"/><path d="M190.381,156.4V137.937H185.37v-.562h5.011v-6.566l4.321-.628v7.2h7.949v.562H194.7v18.6c0,3,1.124,5.261,3.882,5.261,2.376,0,4.133-1.818,5.384-3.443l.312.25C202.59,160.8,200.526,163,196.828,163,193.016,162.979,190.381,160.66,190.381,156.4Z" transform="translate(-109.295 -76.754)" fill="#0082f2"/><path d="M234.8,171.425c3.382,0,5.011-.246,5.011-3.378V151.221c0-3.131-1.642-3.382-5.011-3.382v-.373l9.332-1.256v21.858c0,3.131,1.642,3.378,5.007,3.378v.439H234.8Z" transform="translate(-138.439 -86.206)" fill="#0082f2"/><path d="M279.631,156.4V137.937H274.62v-.562h5.011v-6.566l4.321-.628v7.2H291.9v.562h-7.949v18.6c0,3,1.124,5.261,3.882,5.261,2.38,0,4.133-1.818,5.384-3.443l.312.25C291.84,160.8,289.776,163,286.078,163,282.262,162.979,279.631,160.66,279.631,156.4Z" transform="translate(-161.917 -76.754)" fill="#0082f2"/><path d="M326.8,164.562V151.171c0-3.131-1.642-3.382-5.011-3.382v-.374l9.332-1.256v18.4c0,3.759,1.642,5.951,4.945,5.951,3.447,0,5.951-2.38,7.83-4.322V151.171c0-3.131-1.642-3.382-5.011-3.382v-.374l9.328-1.256v21.858c0,3.131,1.641,3.378,5.011,3.378v.439h-9.341v-4.884c-1.88,1.941-5.45,5.573-10.083,5.573C330.109,172.524,326.8,170.209,326.8,164.562Z" transform="translate(-189.728 -86.176)" fill="#0082f2"/><path d="M407.941,156.4V137.937H402.93v-.562h5.011v-6.566l4.322-.628v7.2H420.2v.562h-7.933v18.6c0,3,1.124,5.261,3.882,5.261,2.376,0,4.133-1.818,5.384-3.443l.312.25C420.15,160.8,418.086,163,414.388,163,410.572,162.979,407.941,160.66,407.941,156.4Z" transform="translate(-237.569 -76.754)" fill="#0082f2"/><path d="M455.26,158.974c0-8.142,5.746-12.964,12.275-12.964,5.573,0,11.146,3.509,11.146,11.458H460.021c-.378,8.393,2.565,13.839,8.577,13.839,5.011,0,8.327-3.755,9.644-6.825l.439.189c-1.441,3.258-4.822,7.765-11.335,7.765C459.52,172.436,455.26,165.988,455.26,158.974Zm4.822-2.052H473.8c-.066-4.005-1.005-10.4-6.263-10.4-4.322-.016-6.952,4.432-7.457,10.379Z" transform="translate(-268.423 -86.088)" fill="#0082f2"/></svg>