<svg id="harper_logo_dark" xmlns="http://www.w3.org/2000/svg" width="284.878" height="116.992" viewBox="0 0 284.878 116.992">
  <g id="Layer_1" data-name="Layer 1">
    <path id="Path_1490" data-name="Path 1490" d="M0,56.161c4.582,0,5.516-2.291,5.516-6.534V8.652c0-4.243-.934-6.428-5.516-6.428V1.7L17.137,0V27.574c3.225-3.225,7.974-6.789,13.662-6.789,5.6,0,10.348,3.308,10.348,11.466V49.633c0,4.243.934,6.528,5.516,6.528v.506H24.688v-.506c3.82,0,4.921-2.291,4.921-6.534V31.05c0-4.409-1.952-6.361-5.088-6.361s-5.516,1.868-7.384,3.731V49.633c0,4.243.934,6.534,5.516,6.534v.506H0Z" fill="#012646"/>
    <path id="Path_1491" data-name="Path 1491" d="M90.93,64.359c0-7.04,6.534-9.842,14.507-9.842a35.536,35.536,0,0,1,9.336,1.273V47.055c0-5.093-1.19-9.164-6.873-9.164a8.758,8.758,0,0,0-7.551,3.892,6.022,6.022,0,0,1,3.564,5.51,5.688,5.688,0,1,1-11.371-.239c0-5.349,6.45-9.675,15.953-9.675,8.4,0,17.9,3.481,17.9,13.234V69.024c0,1.952,1.018,2.63,2.291,2.63,2.374,0,4.409-2.63,5.6-4.493l.423.256c-2.118,3.392-5,6.673-10.52,6.673-4.749,0-7.718-2.463-8.819-5.939-2.291,3.136-5.944,6.022-12.305,6.022C95.851,74.2,90.93,70.47,90.93,64.359Zm23.843,3.564V56.469a19.4,19.4,0,0,0-5-.845c-4.582,0-6.962,2.78-6.962,8.229,0,4.493,1.7,7.974,5.516,7.974C110.786,71.827,112.9,70.387,114.773,67.924Z" transform="translate(-40.369 -16.595)" fill="#012646"/>
    <path id="Path_1492" data-name="Path 1492" d="M169.2,72.756c4.582,0,5.516-2.463,5.516-6.706V46.371c0-4.237-.934-6.673-5.516-6.673v-.506l16.8-1.7V49.007c1.785-5.944,5.772-11.627,11.371-11.627a6.319,6.319,0,0,1,6.617,6.45,6.211,6.211,0,1,1-12.389-.512,10.645,10.645,0,0,0-5.26,6.022V66.083c0,4.671,1.529,6.706,6.116,6.706v.506H169.2Z" transform="translate(-75.117 -16.595)" fill="#012646"/>
    <path id="Path_1493" data-name="Path 1493" d="M233.61,89.943c4.582,0,6.178-5.816,6.178-10.053V46.371c0-4.237-.934-6.673-5.516-6.673v-.506l16.793-1.729v5.6a14.479,14.479,0,0,1,11.449-5.683c9.675,0,15.441,8.658,15.441,18.349,0,10.1-6.361,18.494-17.794,18.494-4.154,0-7.04-1.112-8.824-2.458v8.652c0,4.243,1.7,6.194,6.194,6.194v.506l-23.91,3.336Zm17.716-46.369v22.57c0,4.832,3.058,7.3,6.278,7.3,6.117,0,8.146-9.67,8.146-17.137,0-9.164-2.63-15.781-8.4-15.781A7.733,7.733,0,0,0,251.326,43.574Z" transform="translate(-103.712 -16.595)" fill="#012646"/>
    <path id="Path_1494" data-name="Path 1494" d="M323.91,55.791c0-10.437,7.89-18.411,19.339-18.411,10.009,0,17.143,6.194,17.393,16.631H335.871c0,11.2,4.242,18.238,12.049,18.238,5.85,0,9.842-3.987,12.133-7.3l.506.339a19.818,19.818,0,0,1-17.237,8.9C330.633,74.2,323.91,65.377,323.91,55.791Zm12.044-2.458h13.239c-.089-3.992-.339-15.441-6.194-15.441C338.078,37.892,336.126,46.544,335.954,53.333Z" transform="translate(-143.802 -16.595)" fill="#012646"/>
    <path id="Path_1495" data-name="Path 1495" d="M398.05,72.756c4.582,0,5.533-2.458,5.533-6.673V46.371c0-4.237-.934-6.673-5.516-6.673v-.506l16.8-1.7V49.007c1.779-5.944,5.766-11.627,11.365-11.627a6.316,6.316,0,0,1,6.617,6.45,6.211,6.211,0,1,1-12.383-.512,10.645,10.645,0,0,0-5.26,6.022V66.083c0,4.671,1.524,6.706,6.117,6.706v.506H398.05Z" transform="translate(-176.717 -16.595)" fill="#012646"/>
    <path id="Path_1496" data-name="Path 1496" d="M2,167.685c4.582,0,6.789-.334,6.789-4.576v-22.8c0-4.243-2.224-4.582-6.789-4.582v-.506l12.644-1.7v29.615c0,4.243,2.224,4.576,6.784,4.576v.595H2Zm4.838-46.068a4,4,0,0,1,4.243-3.987,3.925,3.925,0,0,1,4.159,3.987,3.992,3.992,0,0,1-4.159,4.076,4.065,4.065,0,0,1-4.254-4.076Z" transform="translate(-0.888 -52.223)" fill="#012646"/>
    <path id="Path_1497" data-name="Path 1497" d="M42.87,180.28c4.582,0,6.789-.334,6.789-4.576v-22.8c0-4.243-2.224-4.582-6.789-4.582v-.506l12.644-1.7v7.557C58.056,151,62.893,146,69.171,146c5,0,9.5,3.142,9.5,10.776v18.906c0,4.243,2.224,4.576,6.789,4.576v.595H66.035v-.595c4.576,0,6.784-.334,6.784-4.576V156.776c0-5.088-2.224-8.057-6.673-8.057-4.754,0-8.146,3.308-10.6,5.85V175.7c0,4.243,2.224,4.576,6.784,4.576v.6H42.87Z" transform="translate(-19.032 -64.818)" fill="#012646"/>
    <path id="Path_1498" data-name="Path 1498" d="M128.988,180.267l-.678-10.37.512-.083c1.779,4.582,4.665,11.455,12.556,11.455,5.6,0,8.485-3.481,8.485-7.045,0-9.586-20.791-6.278-20.791-18.833,0-5.177,3.564-9.419,12.305-9.419,4.493,0,7.379,1.112,11.2.256l.762,10.6-.506.083c-1.357-3.22-4.5-10.431-11.627-10.431-4.749,0-7.551,3.136-7.551,6.617,0,9.5,21.041,6.45,21.041,18.905,0,5.51-4.154,9.753-13.656,9.753A60.109,60.109,0,0,1,128.988,180.267Z" transform="translate(-56.964 -64.804)" fill="#012646"/>
    <path id="Path_1499" data-name="Path 1499" d="M192.159,165.711V140.689H185.37v-.762h6.789v-8.9l5.855-.851v9.759h10.771v.762H198.014v25.2c0,4.07,1.524,7.129,5.26,7.129,3.22,0,5.6-2.463,7.3-4.665l.423.339c-2.291,2.969-5.088,5.939-10.1,5.939C195.729,174.619,192.159,171.477,192.159,165.711Z" transform="translate(-82.296 -57.794)" fill="#012646"/>
    <path id="Path_1500" data-name="Path 1500" d="M234.8,180.373c4.582,0,6.789-.334,6.789-4.576V153c0-4.243-2.224-4.582-6.789-4.582v-.506l12.644-1.7v29.615c0,4.243,2.224,4.576,6.784,4.576v.6H234.8Z" transform="translate(-104.241 -64.911)" fill="#012646"/>
    <path id="Path_1501" data-name="Path 1501" d="M281.409,165.711V140.689H274.62v-.762h6.789v-8.9l5.855-.851v9.759h10.771v.762H287.264v25.2c0,4.07,1.523,7.129,5.26,7.129,3.225,0,5.6-2.463,7.3-4.665l.423.339c-2.291,2.969-5.088,5.939-10.1,5.939C284.973,174.619,281.409,171.477,281.409,165.711Z" transform="translate(-121.919 -57.794)" fill="#012646"/>
    <path id="Path_1502" data-name="Path 1502" d="M328.579,171.093V152.949c0-4.243-2.224-4.582-6.789-4.582v-.506l12.644-1.7v24.933c0,5.093,2.224,8.063,6.7,8.063,4.671,0,8.063-3.225,10.609-5.855V152.949c0-4.243-2.224-4.582-6.789-4.582v-.506l12.639-1.7v29.615c0,4.243,2.224,4.576,6.789,4.576v.6H351.728v-6.617c-2.547,2.63-7.384,7.551-13.662,7.551C333.061,181.88,328.579,178.744,328.579,171.093Z" transform="translate(-142.861 -64.889)" fill="#012646"/>
    <path id="Path_1503" data-name="Path 1503" d="M409.719,165.711V140.689H402.93v-.762h6.789v-8.9l5.855-.851v9.759h10.748v.762H415.575v25.2c0,4.07,1.524,7.129,5.26,7.129,3.219,0,5.6-2.463,7.3-4.665l.423.339c-2.291,2.969-5.088,5.939-10.1,5.939C413.284,174.619,409.719,171.477,409.719,165.711Z" transform="translate(-178.883 -57.794)" fill="#012646"/>
    <path id="Path_1504" data-name="Path 1504" d="M455.26,163.575c0-11.032,7.785-17.565,16.631-17.565,7.551,0,15.1,4.754,15.1,15.525H461.71c-.511,11.371,3.475,18.75,11.621,18.75,6.789,0,11.282-5.088,13.067-9.247l.595.256c-1.952,4.415-6.533,10.52-15.358,10.52C461.032,181.814,455.26,173.078,455.26,163.575Zm6.534-2.78h18.583c-.089-5.427-1.362-14.085-8.485-14.085-5.855-.022-9.419,6.005-10.1,14.062Z" transform="translate(-202.115 -64.822)" fill="#012646"/>
  </g>
</svg>
