<svg xmlns="http://www.w3.org/2000/svg" width="226.855" height="93.163" viewBox="0 0 226.855 93.163"><path d="M0,44.722c3.649,0,4.392-1.824,4.392-5.2V6.89c0-3.379-.744-5.119-4.392-5.119V1.351L13.647,0V21.958c2.568-2.568,6.35-5.406,10.879-5.406,4.459,0,8.24,2.635,8.24,9.13V39.524c0,3.378.744,5.2,4.392,5.2v.4H19.66v-.4c3.042,0,3.919-1.824,3.919-5.2V24.725c0-3.511-1.554-5.066-4.052-5.066s-4.392,1.488-5.88,2.971V39.524c0,3.378.744,5.2,4.392,5.2v.4H0Z" fill="#fff"/><path d="M90.93,58.864c0-5.606,5.2-7.837,11.552-7.837a28.3,28.3,0,0,1,7.434,1.014V45.085c0-4.056-.948-7.3-5.473-7.3a6.974,6.974,0,0,0-6.013,3.1,4.8,4.8,0,0,1,2.838,4.388,4.53,4.53,0,1,1-9.055-.19c0-4.26,5.136-7.7,12.7-7.7,6.686,0,14.253,2.772,14.253,10.538V62.579c0,1.554.81,2.094,1.824,2.094,1.891,0,3.511-2.094,4.459-3.578l.337.2c-1.687,2.7-3.985,5.314-8.378,5.314-3.781,0-6.146-1.962-7.023-4.729a11.356,11.356,0,0,1-9.8,4.8C94.849,66.7,90.93,63.731,90.93,58.864ZM109.917,61.7V52.581a15.445,15.445,0,0,0-3.985-.673c-3.649,0-5.544,2.214-5.544,6.553,0,3.578,1.355,6.35,4.392,6.35C106.742,64.811,108.429,63.664,109.917,61.7Z" transform="translate(-50.667 -20.828)" fill="#fff"/><path d="M169.2,65.55c3.649,0,4.392-1.962,4.392-5.34V44.54c0-3.374-.744-5.314-4.392-5.314v-.4l13.377-1.355v9.17c1.421-4.733,4.6-9.259,9.055-9.259a5.032,5.032,0,0,1,5.269,5.136,4.946,4.946,0,1,1-9.865-.407,8.477,8.477,0,0,0-4.189,4.8V60.237c0,3.719,1.218,5.34,4.871,5.34v.4H169.2Z" transform="translate(-94.28 -20.828)" fill="#fff"/><path d="M233.61,79.237c3.649,0,4.919-4.632,4.919-8.006V44.54c0-3.374-.744-5.314-4.392-5.314v-.4l13.372-1.377v4.459a11.53,11.53,0,0,1,9.117-4.525c7.7,0,12.3,6.894,12.3,14.612,0,8.041-5.066,14.727-14.169,14.727a11.547,11.547,0,0,1-7.027-1.957v6.89c0,3.379,1.355,4.933,4.933,4.933v.4l-19.04,2.657Zm14.107-36.924V60.286c0,3.848,2.435,5.809,5,5.809,4.871,0,6.487-7.7,6.487-13.647,0-7.3-2.094-12.566-6.686-12.566A6.158,6.158,0,0,0,247.717,42.313Z" transform="translate(-130.169 -20.828)" fill="#fff"/><path d="M323.91,52.041c0-8.311,6.283-14.661,15.4-14.661,7.97,0,13.651,4.933,13.851,13.244H333.435c0,8.918,3.378,14.524,9.6,14.524,4.658,0,7.838-3.175,9.662-5.809l.4.27a15.782,15.782,0,0,1-13.727,7.085C329.263,66.7,323.91,59.675,323.91,52.041Zm9.591-1.957h10.543c-.071-3.179-.27-12.3-4.933-12.3C335.192,37.787,333.638,44.677,333.5,50.084Z" transform="translate(-180.485 -20.828)" fill="#fff"/><path d="M398.05,65.55c3.649,0,4.406-1.957,4.406-5.314V44.54c0-3.374-.744-5.314-4.392-5.314v-.4l13.381-1.355v9.17c1.417-4.733,4.592-9.259,9.051-9.259a5.029,5.029,0,0,1,5.269,5.136,4.946,4.946,0,1,1-9.861-.407,8.477,8.477,0,0,0-4.189,4.8V60.237c0,3.719,1.213,5.34,4.871,5.34v.4H398.05Z" transform="translate(-221.797 -20.828)" fill="#fff"/><path d="M2,157.49c3.649,0,5.406-.266,5.406-3.644V135.692c0-3.379-1.771-3.649-5.406-3.649v-.4l10.069-1.355v23.583c0,3.378,1.771,3.644,5.4,3.644v.474H2ZM5.852,120.8a3.182,3.182,0,0,1,3.379-3.175,3.126,3.126,0,0,1,3.312,3.175,3.179,3.179,0,0,1-3.312,3.246A3.237,3.237,0,0,1,5.843,120.8Z" transform="translate(-1.114 -65.544)" fill="#fff"/><path d="M42.87,173.3c3.649,0,5.406-.266,5.406-3.644V151.5c0-3.379-1.771-3.649-5.406-3.649v-.4l10.069-1.355v6.018C54.963,149.985,58.815,146,63.814,146c3.985,0,7.567,2.5,7.567,8.581v15.055c0,3.378,1.771,3.644,5.407,3.644v.474H61.317v-.474c3.644,0,5.4-.266,5.4-3.644V154.581c0-4.051-1.771-6.416-5.313-6.416-3.786,0-6.487,2.635-8.444,4.658v16.826c0,3.379,1.771,3.644,5.4,3.644v.474H42.87Z" transform="translate(-23.888 -81.352)" fill="#fff"/><path d="M128.85,173.281l-.54-8.258.407-.066c1.417,3.649,3.715,9.122,10,9.122,4.459,0,6.757-2.772,6.757-5.61,0-7.634-16.556-5-16.556-15,0-4.122,2.838-7.5,9.8-7.5,3.578,0,5.876.886,8.918.2l.607,8.444-.4.066c-1.08-2.564-3.582-8.307-9.259-8.307-3.781,0-6.013,2.5-6.013,5.269,0,7.567,16.755,5.136,16.755,15.055,0,4.388-3.308,7.767-10.875,7.767A47.866,47.866,0,0,1,128.85,173.281Z" transform="translate(-71.495 -81.336)" fill="#fff"/><path d="M190.776,158.474V138.549H185.37v-.607h5.407v-7.085l4.663-.677v7.771h8.577v.607h-8.577v20.067c0,3.241,1.213,5.677,4.189,5.677,2.564,0,4.459-1.962,5.809-3.715l.336.27c-1.824,2.364-4.052,4.729-8.041,4.729C193.619,165.568,190.776,163.066,190.776,158.474Z" transform="translate(-103.29 -72.537)" fill="#fff"/><path d="M234.8,173.415c3.649,0,5.407-.266,5.407-3.644V151.616c0-3.378-1.771-3.649-5.407-3.649v-.4l10.069-1.355v23.583c0,3.379,1.771,3.644,5.4,3.644v.474H234.8Z" transform="translate(-130.833 -81.469)" fill="#fff"/><path d="M280.027,158.474V138.549H274.62v-.607h5.407v-7.085l4.663-.677v7.771h8.577v.607h-8.577v20.067c0,3.241,1.213,5.677,4.189,5.677,2.568,0,4.459-1.962,5.809-3.715l.337.27c-1.824,2.364-4.052,4.729-8.041,4.729C282.865,165.568,280.027,163.066,280.027,158.474Z" transform="translate(-153.021 -72.537)" fill="#fff"/><path d="M327.2,166.015V151.566c0-3.378-1.771-3.649-5.406-3.649v-.4l10.069-1.355v19.855c0,4.056,1.771,6.421,5.336,6.421,3.719,0,6.42-2.568,8.448-4.663V151.566c0-3.378-1.771-3.649-5.406-3.649v-.4L350.3,146.16v23.583c0,3.378,1.771,3.644,5.406,3.644v.474H345.63v-5.269c-2.028,2.094-5.88,6.013-10.879,6.013C330.765,174.6,327.2,172.108,327.2,166.015Z" transform="translate(-179.304 -81.442)" fill="#fff"/><path d="M408.337,158.474V138.549H402.93v-.607h5.406v-7.085L413,130.18v7.771h8.559v.607H413v20.067c0,3.241,1.213,5.677,4.189,5.677,2.564,0,4.459-1.962,5.809-3.715l.337.27c-1.824,2.364-4.052,4.729-8.041,4.729C411.175,165.568,408.337,163.066,408.337,158.474Z" transform="translate(-224.516 -72.537)" fill="#fff"/><path d="M455.26,160c0-8.785,6.2-13.988,13.244-13.988,6.013,0,12.026,3.786,12.026,12.363H460.4c-.407,9.055,2.767,14.931,9.254,14.931,5.407,0,8.984-4.052,10.406-7.364l.474.2c-1.554,3.516-5.2,8.378-12.23,8.378C459.856,174.521,455.26,167.565,455.26,160Zm5.2-2.214h14.8c-.071-4.322-1.085-11.216-6.757-11.216-4.663-.018-7.5,4.782-8.046,11.2Z" transform="translate(-253.675 -81.358)" fill="#fff"/></svg>